# This file uses centimeters as units for non-parametric coordinates.

mtllib tableforsurfacing.mtl
g default
v -0.101798 -0.223708 -0.129336
v -1.124804 -0.307927 -2.010283
v 0.100257 -0.218332 -0.246034
v -1.014338 -0.304987 -2.074083
v 0.004203 2.187452 -0.301510
v -0.598731 2.184961 -1.291064
v -0.197852 2.182076 -0.184812
v -0.753601 2.180840 -1.201618
v -0.404769 0.833046 -1.010076
v 0.056863 0.868518 -0.271096
v -0.145192 0.863142 -0.154398
v -0.553200 0.829097 -0.924348
v -1.023607 -0.072841 -2.079436
v 0.090988 0.013815 -0.251387
v -0.111067 0.008439 -0.134689
v -1.134073 -0.075780 -2.015636
v -0.587770 1.895649 -1.285415
v 0.013984 1.942493 -0.295862
v -0.188072 1.937117 -0.179164
v -0.742641 1.891528 -1.195969
v 1.826485 2.213948 -3.163563
v -1.826483 2.213948 -3.163563
v -3.652968 2.213948 -0.000001
v -1.826484 2.213948 3.163563
v 1.826484 2.213948 3.163563
v 3.652968 2.213948 0.000000
v 1.826485 2.393515 -3.163563
v -1.826483 2.393515 -3.163563
v -3.652968 2.393515 -0.000001
v -1.826484 2.393515 3.163563
v 1.826484 2.393515 3.163563
v 3.652968 2.393515 0.000000
v 0.000000 2.213948 0.000000
v 0.000000 2.393515 0.000000
v 0.100924 -0.191706 0.185888
v -1.013671 -0.278361 2.013937
v -0.101132 -0.197082 0.069190
v -1.124138 -0.281301 1.950137
v -0.197186 2.208702 0.124667
v -0.752934 2.207466 1.141472
v 0.004870 2.214078 0.241365
v -0.598064 2.211586 1.230918
v -0.552533 0.855723 0.864203
v -0.144526 0.889767 0.094252
v 0.057530 0.895144 0.210951
v -0.404102 0.859672 0.949930
v -1.133406 -0.049154 1.955490
v -0.110401 0.035064 0.074543
v 0.091655 0.040441 0.191241
v -1.022940 -0.046215 2.019290
v -0.741974 1.918154 1.135824
v -0.187405 1.963743 0.119018
v 0.014650 1.969119 0.235716
v -0.587104 1.922275 1.225270
v 0.284870 -0.240028 -0.162875
v 2.427017 -0.240028 -0.109977
v 0.284870 -0.240028 0.070521
v 2.427017 -0.240028 0.017623
v 0.284870 2.168312 0.070521
v 1.442472 2.212665 0.043269
v 0.284870 2.168312 -0.162875
v 1.442472 2.212665 -0.135623
v 1.156359 0.847977 0.039550
v 0.284870 0.847977 0.070521
v 0.284870 0.847977 -0.162875
v 1.156359 0.847977 -0.131904
v 2.427018 -0.007634 0.017623
v 0.284870 -0.007634 0.070521
v 0.284870 -0.007634 -0.162875
v 2.427017 -0.007634 -0.109977
v 1.443652 1.923093 0.043269
v 0.284870 1.923093 0.070521
v 0.284870 1.923093 -0.162875
v 1.443652 1.923093 -0.135623
vt 0.588682 0.025589
vt 0.454154 0.030663
vt 0.734337 0.035442
vt 0.599486 0.024432
vt 0.595062 0.183776
vt 0.596922 0.103104
vt 0.598403 0.038902
vt 0.733992 0.050328
vt 0.652047 0.103286
vt 0.668920 0.179083
vt 0.668427 0.195177
vt 0.596095 0.198668
vt 0.679709 0.195446
vt 0.584791 0.199404
vt 0.738413 0.057086
vt 0.589637 0.039306
vt 0.588156 0.103508
vt 0.586296 0.184180
vt 0.680247 0.179660
vt 0.533056 0.101468
vt 0.512901 0.176559
vt 0.679896 0.176184
vt 0.657991 0.112344
vt 0.662576 0.100851
vt 0.453850 0.045450
vt 0.742083 0.050416
vt 0.734663 0.027335
vt 0.742383 0.035602
vt 0.668293 0.206649
vt 0.512782 0.192368
vt 0.595858 0.213215
vt 0.600071 0.009766
vt 0.009766 0.890340
vt 0.173177 0.890340
vt 0.173177 0.907284
vt 0.009766 0.907284
vt 0.336588 0.890340
vt 0.336588 0.907284
vt 0.500000 0.890340
vt 0.500000 0.907284
vt 0.663411 0.890340
vt 0.663411 0.907284
vt 0.826823 0.890340
vt 0.826823 0.907284
vt 0.990234 0.890340
vt 0.990234 0.907284
vt 0.128432 0.009767
vt 0.365763 0.009767
vt 0.247097 0.215302
vt 0.009766 0.215302
vt 0.128431 0.420838
vt 0.365763 0.420838
vt 0.484429 0.215302
vt 0.365763 0.861124
vt 0.128431 0.861124
vt 0.247097 0.655589
vt 0.009766 0.655589
vt 0.128431 0.450054
vt 0.365763 0.450054
vt 0.484429 0.655589
vt 0.716935 0.223577
vt 0.851527 0.241147
vt 0.851201 0.249254
vt 0.716350 0.238244
vt 0.711926 0.397588
vt 0.713786 0.316916
vt 0.715267 0.252714
vt 0.850856 0.264140
vt 0.768911 0.317098
vt 0.785784 0.392894
vt 0.785291 0.408988
vt 0.712959 0.412479
vt 0.785157 0.420461
vt 0.712722 0.427027
vt 0.570714 0.259262
vt 0.571018 0.244475
vt 0.705547 0.239401
vt 0.706501 0.253118
vt 0.705021 0.317319
vt 0.703160 0.397992
vt 0.701655 0.413216
vt 0.629646 0.406180
vt 0.629765 0.390370
vt 0.649921 0.315280
vt 0.859247 0.249414
vt 0.858947 0.264228
vt 0.779440 0.314663
vt 0.796760 0.389996
vt 0.855277 0.270897
vt 0.774855 0.326156
vt 0.797111 0.393472
vt 0.796573 0.409258
vt 0.600071 0.445322
vt 0.734663 0.462891
vt 0.734337 0.470998
vt 0.599486 0.459989
vt 0.595062 0.619332
vt 0.596922 0.538660
vt 0.598403 0.474459
vt 0.733992 0.485884
vt 0.652047 0.538842
vt 0.668920 0.614639
vt 0.668427 0.630733
vt 0.596095 0.634224
vt 0.668293 0.642205
vt 0.595858 0.648771
vt 0.453850 0.481006
vt 0.454154 0.466219
vt 0.588682 0.461145
vt 0.589637 0.474862
vt 0.588156 0.539064
vt 0.586296 0.619736
vt 0.584791 0.634960
vt 0.512782 0.627924
vt 0.512901 0.612115
vt 0.533056 0.537024
vt 0.742383 0.471158
vt 0.742083 0.485972
vt 0.662576 0.536407
vt 0.679896 0.611740
vt 0.738413 0.492642
vt 0.657991 0.547900
vt 0.680247 0.615216
vt 0.679709 0.631002
vn -0.772766 -0.132680 0.620668
vn -0.872042 -0.145099 0.467428
vn 0.845544 -0.099398 -0.524572
vn 0.928179 -0.087421 -0.361721
vn 0.929779 0.029926 -0.366899
vn 0.929779 0.029926 -0.366899
vn 0.929779 0.029926 -0.366899
vn 0.829809 0.065206 -0.554225
vn 0.804590 0.055262 -0.591253
vn 0.829990 0.013000 -0.557627
vn 0.838876 0.099933 -0.535070
vn 0.924002 0.100738 -0.368880
vn -0.885754 0.054044 0.460999
vn -0.784385 0.055281 0.617806
vn -0.896428 0.019274 0.442771
vn -0.782728 -0.015641 0.622167
vn -0.782728 -0.015641 0.622167
vn -0.782728 -0.015641 0.622167
vn -0.897381 -0.032962 0.440024
vn -0.915505 0.009494 0.402196
vn 0.072946 -0.989301 -0.126345
vn -0.072946 -0.989301 -0.126345
vn -0.072946 0.989301 -0.126346
vn 0.072946 0.989301 -0.126346
vn -0.145891 -0.989301 -0.000000
vn -0.145891 0.989301 -0.000000
vn -0.072946 -0.989301 0.126345
vn -0.072946 0.989301 0.126346
vn 0.072946 -0.989301 0.126345
vn 0.072946 0.989301 0.126346
vn 0.145891 -0.989301 -0.000000
vn 0.145891 0.989301 0.000000
vn 0.000000 -1.000000 -0.000000
vn 0.000000 1.000000 0.000000
vn 0.928179 -0.087421 0.361721
vn 0.845544 -0.099398 0.524572
vn -0.872042 -0.145099 -0.467428
vn -0.772766 -0.132680 -0.620668
vn -0.782728 -0.015641 -0.622167
vn -0.782728 -0.015641 -0.622167
vn -0.782728 -0.015641 -0.622167
vn -0.896428 0.019274 -0.442771
vn -0.915505 0.009494 -0.402195
vn -0.897381 -0.032962 -0.440024
vn -0.885754 0.054044 -0.460998
vn -0.784385 0.055281 -0.617806
vn 0.838877 0.099933 0.535070
vn 0.924002 0.100738 0.368880
vn 0.829809 0.065206 0.554225
vn 0.929779 0.029926 0.366899
vn 0.929779 0.029926 0.366899
vn 0.929779 0.029926 0.366899
vn 0.829990 0.013000 0.557627
vn 0.804591 0.055262 0.591253
vn -0.146469 -0.116016 -0.982389
vn 0.036221 -0.120933 -0.992000
vn 0.036222 -0.120932 0.992000
vn -0.146469 -0.116016 0.982389
vn -0.147465 0.001262 0.989067
vn -0.147465 0.001262 0.989067
vn -0.147465 0.001262 0.989067
vn 0.063178 0.044807 0.996996
vn 0.108214 0.036733 0.993449
vn 0.068116 -0.007272 0.997651
vn 0.040686 0.078695 0.996068
vn -0.145692 0.072276 0.986687
vn 0.040686 0.078695 -0.996068
vn -0.145692 0.072276 -0.986687
vn 0.063178 0.044807 -0.996996
vn -0.147465 0.001262 -0.989066
vn -0.147465 0.001262 -0.989066
vn -0.147465 0.001262 -0.989066
vn 0.068116 -0.007272 -0.997651
vn 0.108214 0.036733 -0.993449
s 1
g pCube5
usemtl blinn2SG
f 1/32/1 2/27/2 4/3/3 3/4/4
f 18/5/5 10/6/6 14/7/7 3/4/4 4/3/3 13/8/8 9/9/9 17/10/10 6/11/11 5/12/12
f 5/12/12 6/11/11 8/29/13 7/31/14
f 16/25/15 2/2/2 1/1/1 15/16/16 11/17/17 19/18/18 7/14/14 8/30/13 20/21/19 12/20/20
f 2/28/2 16/26/15 13/8/8 4/3/3
f 19/18/18 11/17/17 15/16/16 1/1/1 3/4/4 14/7/7 10/6/6 18/5/5 5/12/12 7/14/14
f 9/9/9 12/24/20 20/22/19 17/10/10
f 13/8/8 16/15/15 12/23/20 9/9/9
f 17/10/10 20/19/19 8/13/13 6/11/11
s 2
f 21/33/21 22/34/22 28/35/23 27/36/24
f 22/34/22 23/37/25 29/38/26 28/35/23
f 23/37/25 24/39/27 30/40/28 29/38/26
f 24/39/27 25/41/29 31/42/30 30/40/28
f 25/41/29 26/43/31 32/44/32 31/42/30
f 26/43/31 21/45/21 27/46/24 32/44/32
f 22/47/22 21/48/21 33/49/33
f 23/50/25 22/47/22 33/49/33
f 24/51/27 23/50/25 33/49/33
f 25/52/29 24/51/27 33/49/33
f 26/53/31 25/52/29 33/49/33
f 21/48/21 26/53/31 33/49/33
f 27/54/24 28/55/23 34/56/34
f 28/55/23 29/57/26 34/56/34
f 29/57/26 30/58/28 34/56/34
f 30/58/28 31/59/30 34/56/34
f 31/59/30 32/60/32 34/56/34
f 32/60/32 27/54/24 34/56/34
s 3
f 35/61/35 36/62/36 38/63/37 37/64/38
f 52/65/39 44/66/40 48/67/41 37/64/38 38/63/37 47/68/42 43/69/43 51/70/44 40/71/45 39/72/46
f 39/72/46 40/71/45 42/73/47 41/74/48
f 50/75/49 36/76/36 35/77/35 49/78/50 45/79/51 53/80/52 41/81/48 42/82/47 54/83/53 46/84/54
f 36/85/36 50/86/49 47/68/42 38/63/37
f 53/80/52 45/79/51 49/78/50 35/77/35 37/64/38 48/67/41 44/66/40 52/65/39 39/72/46 41/81/48
f 43/69/43 46/87/54 54/88/53 51/70/44
f 47/68/42 50/89/49 46/90/54 43/69/43
f 51/70/44 54/91/53 42/92/47 40/71/45
s 4
f 55/93/55 56/94/56 58/95/57 57/96/58
f 72/97/59 64/98/60 68/99/61 57/96/58 58/95/57 67/100/62 63/101/63 71/102/64 60/103/65 59/104/66
f 59/104/66 60/103/65 62/105/67 61/106/68
f 70/107/69 56/108/56 55/109/55 69/110/70 65/111/71 73/112/72 61/113/68 62/114/67 74/115/73 66/116/74
f 56/117/56 70/118/69 67/100/62 58/95/57
f 73/112/72 65/111/71 69/110/70 55/109/55 57/96/58 68/99/61 64/98/60 72/97/59 59/104/66 61/113/68
f 63/101/63 66/119/74 74/120/73 71/102/64
f 67/100/62 70/121/69 66/122/74 63/101/63
f 71/102/64 74/123/73 62/124/67 60/103/65
